<svg width="119" height="135" viewBox="0 0 119 135" fill="none" xmlns="http://www.w3.org/2000/svg">
<mask id="mask0_21421_9781" style="mask-type:luminance" maskUnits="userSpaceOnUse" x="0" y="0" width="81" height="127">
<path d="M0 0H80.5781V126.9H0V0Z" fill="white"/>
</mask>
<g mask="url(#mask0_21421_9781)">
<path d="M80.4538 8.54472L73.6089 0H0.0234375V126.455H80.4538V8.54472Z" fill="#6FCFFF"/>
</g>
<mask id="mask1_21421_9781" style="mask-type:luminance" maskUnits="userSpaceOnUse" x="0" y="0" width="81" height="127">
<path d="M0 0H80.5781V126.9H0V0Z" fill="white"/>
</mask>
<g mask="url(#mask1_21421_9781)">
<mask id="mask2_21421_9781" style="mask-type:luminance" maskUnits="userSpaceOnUse" x="0" y="0" width="81" height="127">
<path d="M80.4538 8.54472L73.6089 0H0.0234375V126.455H80.4538V8.54472Z" fill="white"/>
</mask>
<g mask="url(#mask2_21421_9781)">
<path d="M0.0234375 0H80.4556V126.455H0.0234375V0Z" fill="#0093DD"/>
</g>
</g>
<mask id="mask3_21421_9781" style="mask-type:luminance" maskUnits="userSpaceOnUse" x="8" y="8" width="111" height="127">
<path d="M8.57812 8.09961H118.125V135H8.57812V8.09961Z" fill="white"/>
</mask>
<g mask="url(#mask3_21421_9781)">
<path d="M118.102 135H8.57812V8.54492H96.198L118.102 35.8859V135Z" fill="#E5F4FB"/>
</g>
<path d="M17.1348 35.8844C17.1348 34.9407 17.8997 34.1758 18.8434 34.1758H92.4359C93.3795 34.1758 94.1445 34.9407 94.1445 35.8844C94.1445 36.828 93.3795 37.593 92.4359 37.593H18.8434C17.8997 37.593 17.1348 36.828 17.1348 35.8844Z" fill="#6FCFFF"/>
<path d="M17.1348 52.9742C17.1348 52.0306 17.8997 51.2656 18.8434 51.2656H92.4359C93.3795 51.2656 94.1445 52.0306 94.1445 52.9742C94.1445 53.9178 93.3795 54.6828 92.4359 54.6828H18.8434C17.8997 54.6828 17.1348 53.9178 17.1348 52.9742Z" fill="#6FCFFF"/>
<path d="M17.1348 70.0641C17.1348 69.1204 17.8997 68.3555 18.8434 68.3555H92.4359C93.3795 68.3555 94.1445 69.1204 94.1445 70.0641C94.1445 71.0077 93.3795 71.7727 92.4359 71.7727H18.8434C17.8997 71.7727 17.1348 71.0077 17.1348 70.0641Z" fill="#6FCFFF"/>
<path d="M17.1348 87.152C17.1348 86.2083 17.8997 85.4434 18.8434 85.4434H58.2095C59.1532 85.4434 59.9181 86.2083 59.9181 87.152C59.9181 88.0956 59.1532 88.8605 58.2095 88.8605H18.8434C17.8997 88.8605 17.1348 88.0956 17.1348 87.152Z" fill="#6FCFFF"/>
</svg>
