<svg width="17" height="18" viewBox="0 0 17 18" fill="none" xmlns="http://www.w3.org/2000/svg">
<path d="M0.833008 4.83301C0.833008 3.43288 0.833008 2.73281 1.10549 2.19803C1.34517 1.72763 1.72763 1.34517 2.19803 1.10549C2.73281 0.833008 3.43288 0.833008 4.83301 0.833008H11.833C13.2331 0.833008 13.9332 0.833008 14.468 1.10549C14.9384 1.34517 15.3208 1.72763 15.5605 2.19803C15.833 2.73281 15.833 3.43288 15.833 4.83301V9.33301C15.833 10.7331 15.833 11.4332 15.5605 11.968C15.3208 12.4384 14.9384 12.8208 14.468 13.0605C13.9332 13.333 13.2331 13.333 11.833 13.333H9.73613C9.21609 13.333 8.95606 13.333 8.70735 13.3841C8.4867 13.4293 8.27317 13.5042 8.07258 13.6067C7.84648 13.7222 7.64344 13.8847 7.23735 14.2095L5.24947 15.7998C4.90273 16.0772 4.72936 16.2159 4.58346 16.2161C4.45657 16.2162 4.33653 16.1585 4.25736 16.0594C4.16634 15.9453 4.16634 15.7233 4.16634 15.2793V13.333C3.39136 13.333 3.00388 13.333 2.68596 13.2478C1.82323 13.0167 1.14936 12.3428 0.918193 11.4801C0.833008 11.1621 0.833008 10.7747 0.833008 9.99967V4.83301Z" stroke="#535862" stroke-width="1.66667" stroke-linecap="round" stroke-linejoin="round"/>
</svg>
