<svg width="15" height="14" viewBox="0 0 15 14" fill="none" xmlns="http://www.w3.org/2000/svg">
<path d="M13.5 1.5H1.5V12L8.46922 5.02987C8.7621 4.73696 9.23693 4.73693 9.52987 5.02981L13.5 9.0078V1.5ZM0 0.74505C0 0.33357 0.341483 0 0.74385 0H14.2561C14.667 0 15 0.333713 15 0.74505V12.7549C15 13.1664 14.6585 13.5 14.2561 13.5H0.74385C0.333038 13.5 0 13.1663 0 12.7549V0.74505ZM4.5 6C3.67157 6 3 5.32845 3 4.5C3 3.67157 3.67157 3 4.5 3C5.32843 3 6 3.67157 6 4.5C6 5.32845 5.32843 6 4.5 6Z" fill="#0A0D12"/>
</svg>
