<svg width="14" height="14" viewBox="0 0 14 14" fill="none" xmlns="http://www.w3.org/2000/svg">
<path d="M10.864 8.74262L9.80333 7.68197L10.864 6.62132C12.0356 5.44975 12.0356 3.55025 10.864 2.37868C9.69241 1.20711 7.79288 1.20711 6.62131 2.37868L5.56066 3.43934L4.5 2.37868L5.56066 1.31802C7.31798 -0.439341 10.1672 -0.439341 11.9246 1.31802C13.682 3.07538 13.682 5.92465 11.9246 7.68197L10.864 8.74262ZM8.74261 10.864L7.68196 11.9247C5.92463 13.682 3.07538 13.682 1.31802 11.9247C-0.439341 10.1672 -0.439341 7.318 1.31802 5.56067L2.37868 4.5L3.43934 5.56067L2.37868 6.62132C1.2071 7.7929 1.2071 9.69242 2.37868 10.864C3.55025 12.0355 5.44973 12.0355 6.62131 10.864L7.68196 9.80327L8.74261 10.864ZM8.74261 3.43934L9.80333 4.5L4.5 9.80327L3.43934 8.74262L8.74261 3.43934Z" fill="#0A0D12"/>
</svg>
