<svg width="14" height="12" viewBox="0 0 14 12" fill="none" xmlns="http://www.w3.org/2000/svg">
<path d="M10.6153 7.5C10.7884 7.88707 10.875 8.31697 10.875 8.7897C10.875 9.79688 10.4822 10.5837 9.69645 11.1503C8.91068 11.7167 7.82512 12 6.43965 12C5.21005 12 3.99251 11.7139 2.78694 11.1416V9.45068C3.92653 10.1087 5.0931 10.4377 6.28665 10.4377C8.19998 10.4377 9.1596 9.88845 9.1656 8.7897C9.1656 8.32043 9.00368 7.91985 8.67982 7.58798C8.65042 7.5579 8.62043 7.52857 8.58982 7.5H0V6H13.5V7.5H10.6153ZM7.557 5.25H3.47181C3.34245 5.13247 3.22212 5.0019 3.11082 4.85835C2.78694 4.44063 2.625 3.93419 2.625 3.33905C2.625 2.41202 2.97437 1.62375 3.67312 0.97425C4.37187 0.324742 5.45295 0 6.91642 0C8.02005 0 9.07568 0.24606 10.0833 0.738195V2.35193C9.1836 1.83691 8.19697 1.5794 7.12335 1.5794C5.26402 1.5794 4.33438 2.16595 4.33438 3.33905C4.33438 3.65379 4.49782 3.92847 4.8247 4.16309C5.15159 4.39772 5.55495 4.58512 6.03473 4.7253C6.49988 4.8612 7.00733 5.0361 7.557 5.25Z" fill="#0A0D12"/>
</svg>
