<svg width="16" height="16" viewBox="0 0 16 16" fill="none" xmlns="http://www.w3.org/2000/svg">
<path d="M11.9112 9.78985L10.8506 8.7292L11.9112 7.66855C13.0828 6.49697 13.0828 4.59749 11.9112 3.42592C10.7396 2.25434 8.84011 2.25434 7.66853 3.42592L6.60788 4.48658L5.54724 3.42592L6.60788 2.36526C8.36528 0.607897 11.2145 0.607897 12.9719 2.36526C14.7292 4.12261 14.7292 6.97187 12.9719 8.7292L11.9112 9.78985ZM9.78991 11.9112L8.72918 12.9719C6.97186 14.7292 4.12261 14.7292 2.36526 12.9719C0.607897 11.2145 0.607897 8.36522 2.36526 6.6079L3.42592 5.54724L4.48658 6.6079L3.42592 7.66855C2.25434 8.84012 2.25434 10.7396 3.42592 11.9112C4.59749 13.0828 6.49696 13.0828 7.66853 11.9112L8.72918 10.8506L9.78991 11.9112ZM9.78991 4.48658L10.8506 5.54724L5.54724 10.8506L4.48658 9.78985L9.78991 4.48658ZM3 0.38823L4.44889 0L5.22535 2.89777L3.77646 3.28601L3 0.38823ZM10.1118 12.4394L11.5607 12.0511L12.3371 14.9489L10.8882 15.3371L10.1118 12.4394ZM0.38823 3L3.28601 3.77645L2.89777 5.22535L0 4.44889L0.38823 3ZM12.4394 10.1117L15.3371 10.8882L14.9489 12.3371L12.0511 11.5607L12.4394 10.1117Z" fill="#0A0D12"/>
</svg>
