<svg width="14" height="13" viewBox="0 0 14 13" fill="none" xmlns="http://www.w3.org/2000/svg">
<path d="M3.75 0.375H13.5V1.875H3.75V0.375ZM1.125 2.25C0.503677 2.25 0 1.74632 0 1.125C0 0.503677 0.503677 0 1.125 0C1.74632 0 2.25 0.503677 2.25 1.125C2.25 1.74632 1.74632 2.25 1.125 2.25ZM1.125 7.5C0.503677 7.5 0 6.9963 0 6.375C0 5.7537 0.503677 5.25 1.125 5.25C1.74632 5.25 2.25 5.7537 2.25 6.375C2.25 6.9963 1.74632 7.5 1.125 7.5ZM1.125 12.675C0.503677 12.675 0 12.1713 0 11.55C0 10.9287 0.503677 10.425 1.125 10.425C1.74632 10.425 2.25 10.9287 2.25 11.55C2.25 12.1713 1.74632 12.675 1.125 12.675ZM3.75 5.625H13.5V7.125H3.75V5.625ZM3.75 10.875H13.5V12.375H3.75V10.875Z" fill="#0A0D12"/>
</svg>
